<svg width="0" height="0" focusable="false" aria-hidden="true" class="visually-hidden" xmlns="http://www.w3.org/2000/svg" xmlns:xlink="http://www.w3.org/1999/xlink"><defs><symbol viewBox="0 0 44 44" id="icon-kf-logo"><g id="icon-kf-logo_KF-logo" transform="translate(0 -1.105)"><path id="icon-kf-logo_Path_115" data-name="Path 115" d="M35.154,20.9H20.5V35.516l7.374,7.374L42.547,28.274Z" transform="translate(-20.5 -19.795)" fill="#e00034" /><path id="icon-kf-logo_Path_116" data-name="Path 116" d="M20.5,144.274v14.635H35.154l7.393-7.374L27.874,136.9Z" transform="translate(-20.5 -113.804)" fill="#e00034" /><path id="icon-kf-logo_Path_117" data-name="Path 117" d="M144.774,158.909h14.579V144.161l-7.28-7.261L137.4,151.535Z" transform="translate(-115.353 -113.804)" fill="#e00034" /><path id="icon-kf-logo_Path_118" data-name="Path 118" d="M137.4,28.274,152.073,42.89l7.28-7.261V20.9H144.774Z" transform="translate(-115.353 -19.795)" fill="#e00034" /></g></symbol><symbol viewBox="0 0 32.778 33.124" id="icon-share"><defs></defs><g id="icon-share_Group_1983" data-name="Group 1983" transform="translate(-1861 -924.222)"><g id="icon-share_Group_1983-2" data-name="Group 1983" transform="translate(1861 928)"><g id="icon-share_Group_1985" data-name="Group 1985" clip-path="url(#icon-share_clip-path)"><path id="icon-share_Path_686" data-name="Path 686" d="M28.847,14.673A14.174,14.174,0,1,1,14.674.5" fill="none" stroke="#000" stroke-width="1" /></g></g><g id="icon-share_Group_1986" data-name="Group 1986" transform="translate(2 38)"><line id="icon-share_Line_2" data-name="Line 2" x2="11" transform="translate(1886.536 891.464) rotate(135)" fill="none" stroke="#000" stroke-linecap="square" stroke-width="1" /><line id="icon-share_Line_2-2" data-name="Line 2" x2="5" y2="5" transform="translate(1887.243 890.757) rotate(135)" fill="none" stroke="#000" stroke-linecap="square" stroke-width="1" /><line id="icon-share_Line_2-3" data-name="Line 2" x2="5" y2="5" transform="translate(1887.243 897.828) rotate(-135)" fill="none" stroke="#000" stroke-linecap="square" stroke-width="1" /></g></g></symbol><clipPath id="icon-share_clip-path"><rect id="icon-share_Rectangle_687" data-name="Rectangle 687" width="29.346" height="29.346" transform="translate(0 0)" fill="none" stroke="#000" stroke-width="1" /></clipPath><symbol viewBox="0 0 13.803 8.707" id="icon-slug-arrow"><g id="icon-slug-arrow_Group_2170" data-name="Group 2170" transform="translate(-345.673 -193.657)"><line id="icon-slug-arrow_Line_2" data-name="Line 2" x1="12.586" transform="translate(345.923 198.01)" stroke="#000" stroke-linecap="square" stroke-width="0.5" /><line id="icon-slug-arrow_Line_2-2" data-name="Line 2" x2="4" y2="4" transform="translate(359.123 198.01) rotate(180)" stroke="#000" stroke-linecap="square" stroke-width="0.5" /><line id="icon-slug-arrow_Line_2-3" data-name="Line 2" x2="4" y2="4" transform="translate(355.122 202.01) rotate(-90)" stroke="#000" stroke-linecap="square" stroke-width="0.5" /></g></symbol><symbol viewBox="0 0 29.5 29.846" id="icon-subscribe"><defs></defs><g id="icon-subscribe_Group_1983" data-name="Group 1983" transform="translate(-1861 -927.5)"><g id="icon-subscribe_Group_1983-2" data-name="Group 1983" transform="translate(1861 928)"><g id="icon-subscribe_Group_1985" data-name="Group 1985" clip-path="url(#icon-subscribe_clip-path)"><path id="icon-subscribe_Path_686" data-name="Path 686" d="M28.847,14.673A14.174,14.174,0,1,1,14.674.5" fill="none" stroke="#000" stroke-width="1" /></g></g><g id="icon-subscribe_Group_1986" data-name="Group 1986" transform="translate(2 38)"><line id="icon-subscribe_Line_2" data-name="Line 2" x2="12" transform="translate(1876 896)" fill="none" stroke="#000" stroke-linecap="square" stroke-width="1" /><line id="icon-subscribe_Line_2-2" data-name="Line 2" x2="12" transform="translate(1882 890) rotate(90)" fill="none" stroke="#000" stroke-linecap="square" stroke-width="1" /></g></g></symbol><clipPath id="icon-subscribe_clip-path"><rect id="icon-subscribe_Rectangle_687" data-name="Rectangle 687" width="29.346" height="29.346" transform="translate(0 0)" fill="none" stroke="#000" stroke-width="1" /></clipPath></defs></svg>